# xmcd
#
# Track frame offsets:
#	152
#	13623
#	27792
#	41382
#	56189
#	70992
#	82172
#	106075
#	122580
#	142914
#
# Disc length: 2147 seconds
#
# Revision: 0
# Processed by: cddbd v1.5.1PL2 Copyright (c) Steve Scherf et al.
# Submitted via: dBpowerAMP V4.0
#
DISCID=7e08610a
DTITLE=Ben E. King - Eleven Best
DYEAR=2001
DGENRE=Soul
TTITLE0=Amor
TTITLE1=Spanish Harlem
TTITLE2=Don't Play That Song
TTITLE3=Seven Letters
TTITLE4=Stand By Me
TTITLE5=I Who Have Nothing
TTITLE6=Drifters Medley
TTITLE7=I Had A love
TTITLE8=Supernatural Thing Part 1
TTITLE9=Do It In The Name Of Love
EXTD=
EXTT0=
EXTT1=
EXTT2=
EXTT3=
EXTT4=
EXTT5=
EXTT6=
EXTT7=
EXTT8=
EXTT9=
PLAYORDER=
